<svg width="40" height="40" viewBox="0 0 40 40" fill="none" xmlns="http://www.w3.org/2000/svg">
<circle cx="31" cy="8" r="3" fill="#60A5FA"/>
<path d="M31 1V8" stroke="#60A5FA" stroke-width="2" stroke-linecap="round"/>
<path d="M15 0H3C1.34315 0 0 1.34315 0 3V15C0 16.6569 1.34315 18 3 18H15C16.6569 18 18 16.6569 18 15V3C18 1.34315 16.6569 0 15 0Z" fill="#60A5FA"/>
<path d="M37 8H25C23.3431 8 22 9.34315 22 11V23C22 24.6569 23.3431 26 25 26H37C38.6569 26 40 24.6569 40 23V11C40 9.34315 38.6569 8 37 8Z" fill="#2563EB"/>
<path d="M15 22H3C1.34315 22 0 23.3431 0 25V37C0 38.6569 1.34315 40 3 40H15C16.6569 40 18 38.6569 18 37V25C18 23.3431 16.6569 22 15 22Z" fill="#60A5FA"/>
</svg>
